<?xml version="1.0" standalone="no"?>
<!DOCTYPE svg PUBLIC "-//W3C//DTD SVG 20010904//EN"
 "http://www.w3.org/TR/2001/REC-SVG-20010904/DTD/svg10.dtd">
<svg version="1.0" xmlns="http://www.w3.org/2000/svg"
 width="500.000000pt" height="500.000000pt" viewBox="0 0 500.000000 500.000000"
 preserveAspectRatio="xMidYMid meet">
<metadata>
Created by potrace 1.14, written by Peter Selinger 2001-2017
</metadata>
<g transform="translate(0.000000,500.000000) scale(0.100000,-0.100000)"
fill="#000000" stroke="none">
<path d="M2415 4183 c-45 -3 -151 -15 -230 -28 -82 -14 -253 -70 -360 -118
-408 -187 -718 -524 -878 -958 -31 -82 -73 -246 -82 -319 -4 -30 -9 -64 -11
-75 -6 -28 -6 -363 0 -373 2 -4 7 -30 11 -57 30 -239 131 -500 271 -707 253
-373 645 -631 1069 -704 50 -8 104 -17 120 -20 53 -10 318 -6 390 6 39 6 84
13 100 16 54 9 179 45 255 74 465 175 828 549 990 1020 17 52 34 106 36 120 3
14 9 39 14 55 5 17 11 48 15 70 3 22 7 51 10 65 13 75 16 119 16 255 0 83 -2
159 -4 170 -3 11 -8 45 -12 75 -3 30 -18 100 -31 156 -188 779 -897 1315
-1689 1277z m275 -423 c177 -35 323 -89 448 -167 493 -307 717 -905 551 -1466
-142 -477 -559 -833 -1044 -892 -56 -7 -249 -8 -280 -1 -11 2 -42 7 -70 10
-56 8 -78 13 -180 47 -386 125 -692 447 -809 852 -27 91 -33 126 -45 251 -22
234 33 504 146 715 127 237 334 435 572 547 73 35 190 76 248 88 70 14 92 18
148 23 33 3 61 6 62 7 7 6 208 -6 253 -14z"/>
</g>
</svg>
